<svg xmlns="http://www.w3.org/2000/svg" xmlns:xlink="http://www.w3.org/1999/xlink" width="341pt" height="392pt" viewBox="0.00 0.00 340.92 392.10">
<g id="graph0" class="graph" transform="scale(1 1) rotate(0) translate(4 388.1)">
<title>camera_control_pins</title>
<polygon fill="white" stroke="none" points="-4,4 -4,-388.1 336.92,-388.1 336.92,4 -4,4"/>
<!-- Camera_Control -->
<g id="node1" class="node">
<title>Camera_Control</title>
<ellipse fill="#ff9966" stroke="black" cx="92.04" cy="-189" rx="92.04" ry="18"/>
<text text-anchor="middle" x="92.04" y="-184.8" font-family="Times,serif" font-size="14.00">Camera Control Pins</text>
</g>
<!-- GPIO0 -->
<g id="node2" class="node">
<title>GPIO0</title>
<polygon fill="#ffcc99" stroke="black" points="329.42,-378 273.75,-378 273.75,-342 329.42,-342 329.42,-378"/>
<text text-anchor="middle" x="301.58" y="-355.8" font-family="Times,serif" font-size="14.00">GPIO0</text>
</g>
<!-- Camera_Control&#45;&gt;GPIO0 -->
<g id="edge1" class="edge">
<title>Camera_Control-&gt;GPIO0</title>
<path fill="none" stroke="black" d="M102.48,-207.35C118.78,-237.22 155.01,-296.31 202.08,-329 219.97,-341.42 243.06,-349.04 262.39,-353.61"/>
<polygon fill="black" stroke="black" points="261.57,-357.01 272.08,-355.7 263.05,-350.17 261.57,-357.01"/>
<text text-anchor="middle" x="227.17" y="-371.5" font-family="Times,serif" font-size="14.00">GPIO 0</text>
<text text-anchor="middle" x="227.17" y="-354.7" font-family="Times,serif" font-size="14.00">XCLK</text>
</g>
<!-- GPIO22 -->
<g id="node3" class="node">
<title>GPIO22</title>
<polygon fill="#ffcc99" stroke="black" points="332.92,-321 270.25,-321 270.25,-285 332.92,-285 332.92,-321"/>
<text text-anchor="middle" x="301.58" y="-298.8" font-family="Times,serif" font-size="14.00">GPIO22</text>
</g>
<!-- Camera_Control&#45;&gt;GPIO22 -->
<g id="edge2" class="edge">
<title>Camera_Control-&gt;GPIO22</title>
<path fill="none" stroke="black" d="M111.67,-206.79C132.29,-225.62 167.25,-255.04 202.08,-273 219.89,-282.18 240.99,-289.08 259.08,-293.92"/>
<polygon fill="black" stroke="black" points="258.17,-297.3 268.72,-296.38 259.89,-290.52 258.17,-297.3"/>
<text text-anchor="middle" x="227.17" y="-312.89" font-family="Times,serif" font-size="14.00">GPIO 22</text>
<text text-anchor="middle" x="227.17" y="-296.09" font-family="Times,serif" font-size="14.00">PCLK</text>
</g>
<!-- GPIO23 -->
<g id="node4" class="node">
<title>GPIO23</title>
<polygon fill="#ffcc99" stroke="black" points="332.92,-264 270.25,-264 270.25,-228 332.92,-228 332.92,-264"/>
<text text-anchor="middle" x="301.58" y="-241.8" font-family="Times,serif" font-size="14.00">GPIO23</text>
</g>
<!-- Camera_Control&#45;&gt;GPIO23 -->
<g id="edge3" class="edge">
<title>Camera_Control-&gt;GPIO23</title>
<path fill="none" stroke="black" d="M139.19,-204.84C158.5,-211.2 181.26,-218.35 202.08,-224 220.53,-229.01 241.15,-233.75 258.73,-237.53"/>
<polygon fill="black" stroke="black" points="257.8,-240.91 268.31,-239.56 259.25,-234.06 257.8,-240.91"/>
<text text-anchor="middle" x="227.17" y="-256.7" font-family="Times,serif" font-size="14.00">GPIO 23</text>
<text text-anchor="middle" x="227.17" y="-239.9" font-family="Times,serif" font-size="14.00">HREF</text>
</g>
<!-- GPIO25 -->
<g id="node5" class="node">
<title>GPIO25</title>
<polygon fill="#ffcc99" stroke="black" points="332.92,-207 270.25,-207 270.25,-171 332.92,-171 332.92,-207"/>
<text text-anchor="middle" x="301.58" y="-184.8" font-family="Times,serif" font-size="14.00">GPIO25</text>
</g>
<!-- Camera_Control&#45;&gt;GPIO25 -->
<g id="edge4" class="edge">
<title>Camera_Control-&gt;GPIO25</title>
<path fill="none" stroke="black" d="M184.37,-189C210.25,-189 237.17,-189 258.58,-189"/>
<polygon fill="black" stroke="black" points="258.35,-192.5 268.35,-189 258.35,-185.5 258.35,-192.5"/>
<text text-anchor="middle" x="227.17" y="-210" font-family="Times,serif" font-size="14.00">GPIO 25</text>
<text text-anchor="middle" x="227.17" y="-193.2" font-family="Times,serif" font-size="14.00">VSYNC</text>
</g>
<!-- GPIO26 -->
<g id="node6" class="node">
<title>GPIO26</title>
<polygon fill="#ffcc99" stroke="black" points="332.92,-150 270.25,-150 270.25,-114 332.92,-114 332.92,-150"/>
<text text-anchor="middle" x="301.58" y="-127.8" font-family="Times,serif" font-size="14.00">GPIO26</text>
</g>
<!-- Camera_Control&#45;&gt;GPIO26 -->
<g id="edge5" class="edge">
<title>Camera_Control-&gt;GPIO26</title>
<path fill="none" stroke="black" d="M135.6,-172.8C155.58,-165.59 179.85,-157.39 202.08,-151.4 220.58,-146.41 241.35,-142.13 259.04,-138.87"/>
<polygon fill="black" stroke="black" points="259.44,-142.35 268.67,-137.14 258.21,-135.46 259.44,-142.35"/>
<text text-anchor="middle" x="227.17" y="-172.4" font-family="Times,serif" font-size="14.00">GPIO 26</text>
<text text-anchor="middle" x="227.17" y="-155.6" font-family="Times,serif" font-size="14.00">SIOD</text>
</g>
<!-- GPIO27 -->
<g id="node7" class="node">
<title>GPIO27</title>
<polygon fill="#ffcc99" stroke="black" points="332.92,-93 270.25,-93 270.25,-57 332.92,-57 332.92,-93"/>
<text text-anchor="middle" x="301.58" y="-70.8" font-family="Times,serif" font-size="14.00">GPIO27</text>
</g>
<!-- Camera_Control&#45;&gt;GPIO27 -->
<g id="edge6" class="edge">
<title>Camera_Control-&gt;GPIO27</title>
<path fill="none" stroke="black" d="M111.18,-171.1C131.65,-151.82 166.73,-121.49 202.08,-103.4 219.84,-94.31 240.93,-87.73 259.03,-83.22"/>
<polygon fill="black" stroke="black" points="259.74,-86.64 268.67,-80.95 258.14,-79.83 259.74,-86.64"/>
<text text-anchor="middle" x="227.17" y="-124.4" font-family="Times,serif" font-size="14.00">GPIO 27</text>
<text text-anchor="middle" x="227.17" y="-107.6" font-family="Times,serif" font-size="14.00">SIOC</text>
</g>
<!-- GPIO32 -->
<g id="node8" class="node">
<title>GPIO32</title>
<polygon fill="#ffcc99" stroke="black" points="332.92,-36 270.25,-36 270.25,0 332.92,0 332.92,-36"/>
<text text-anchor="middle" x="301.58" y="-13.8" font-family="Times,serif" font-size="14.00">GPIO32</text>
</g>
<!-- Camera_Control&#45;&gt;GPIO32 -->
<g id="edge7" class="edge">
<title>Camera_Control-&gt;GPIO32</title>
<path fill="none" stroke="black" d="M102.11,-170.85C118.13,-140.68 154.27,-80.27 202.08,-47.4 218.89,-35.84 240.32,-28.75 258.9,-24.43"/>
<polygon fill="black" stroke="black" points="259.48,-27.88 268.55,-22.4 258.04,-21.03 259.48,-27.88"/>
<text text-anchor="middle" x="227.17" y="-68.4" font-family="Times,serif" font-size="14.00">GPIO 32</text>
<text text-anchor="middle" x="227.17" y="-51.6" font-family="Times,serif" font-size="14.00">PWDN</text>
</g>
</g>
</svg>