<svg xmlns="http://www.w3.org/2000/svg" xmlns:xlink="http://www.w3.org/1999/xlink" width="863pt" height="526pt" viewBox="0.00 0.00 863.00 525.60">
<g id="graph0" class="graph" transform="scale(1 1) rotate(0) translate(4 521.6)">
<title>ComparativeArchitectures</title>
<polygon fill="white" stroke="none" points="-4,4 -4,-521.6 859,-521.6 859,4 -4,4"/>
<g id="clust1" class="cluster">
<title>cluster_SystemA</title>
<polygon fill="lightcyan" stroke="lightcyan" points="8,-8 8,-509.6 389,-509.6 389,-8 8,-8"/>
<text text-anchor="middle" x="198.5" y="-493" font-family="Times,serif" font-size="14.00">System A: Server-Mediated Mobile Client</text>
</g>
<g id="clust2" class="cluster">
<title>cluster_SystemB</title>
<polygon fill="lightyellow" stroke="lightyellow" points="603,-256.4 603,-509.6 847,-509.6 847,-256.4 603,-256.4"/>
<text text-anchor="middle" x="725" y="-493" font-family="Times,serif" font-size="14.00">System B: Direct-Access Desktop Client</text>
</g>
<!-- ESP32 -->
<g id="node1" class="node">
<title>ESP32</title>
<path fill="none" stroke="black" d="M329.35,-476.8C329.35,-476.8 278.65,-476.8 278.65,-476.8 272.65,-476.8 266.65,-470.8 266.65,-464.8 266.65,-464.8 266.65,-452.8 266.65,-452.8 266.65,-446.8 272.65,-440.8 278.65,-440.8 278.65,-440.8 329.35,-440.8 329.35,-440.8 335.35,-440.8 341.35,-446.8 341.35,-452.8 341.35,-452.8 341.35,-464.8 341.35,-464.8 341.35,-470.8 335.35,-476.8 329.35,-476.8"/>
<text text-anchor="middle" x="304" y="-455.8" font-family="Verdana" font-size="10.00">ESP32-CAM</text>
</g>
<!-- FastAPIServer_A -->
<g id="node5" class="node">
<title>FastAPIServer_A</title>
<path fill="none" stroke="black" d="M243.35,-383.2C243.35,-383.2 176.65,-383.2 176.65,-383.2 170.65,-383.2 164.65,-377.2 164.65,-371.2 164.65,-371.2 164.65,-359.2 164.65,-359.2 164.65,-353.2 170.65,-347.2 176.65,-347.2 176.65,-347.2 243.35,-347.2 243.35,-347.2 249.35,-347.2 255.35,-353.2 255.35,-359.2 255.35,-359.2 255.35,-371.2 255.35,-371.2 255.35,-377.2 249.35,-383.2 243.35,-383.2"/>
<text text-anchor="middle" x="210" y="-362.2" font-family="Verdana" font-size="10.00">FastAPI Server</text>
</g>
<!-- ESP32&#45;&gt;FastAPIServer_A -->
<g id="edge9" class="edge">
<title>ESP32-&gt;FastAPIServer_A</title>
<path fill="none" stroke="black" stroke-dasharray="5,2" d="M286.32,-440.57C272.1,-426.71 251.92,-407.05 235.88,-391.42"/>
<polygon fill="black" stroke="black" points="238.61,-389.19 229,-384.72 233.72,-394.21 238.61,-389.19"/>
<text text-anchor="middle" x="309.34" y="-414.7" font-family="Verdana" font-size="9.00">MJPEG Stream</text>
<text text-anchor="middle" x="309.34" y="-403.9" font-family="Verdana" font-size="9.00">(Server Consumes)</text>
</g>
<!-- PyQt6App_B -->
<g id="node9" class="node">
<title>PyQt6App_B</title>
<path fill="none" stroke="black" d="M667.46,-383.2C667.46,-383.2 622.54,-383.2 622.54,-383.2 616.54,-383.2 610.54,-377.2 610.54,-371.2 610.54,-371.2 610.54,-359.2 610.54,-359.2 610.54,-353.2 616.54,-347.2 622.54,-347.2 622.54,-347.2 667.46,-347.2 667.46,-347.2 673.46,-347.2 679.46,-353.2 679.46,-359.2 679.46,-359.2 679.46,-371.2 679.46,-371.2 679.46,-377.2 673.46,-383.2 667.46,-383.2"/>
<text text-anchor="middle" x="645" y="-362.2" font-family="Verdana" font-size="10.00">PyQt6 App</text>
</g>
<!-- ESP32&#45;&gt;PyQt6App_B -->
<g id="edge15" class="edge">
<title>ESP32-&gt;PyQt6App_B</title>
<path fill="none" stroke="black" stroke-dasharray="5,2" d="M341.59,-447.32C382.89,-435.83 451.21,-416.96 510.21,-401.2 539.71,-393.32 572.91,-384.7 598.98,-377.98"/>
<polygon fill="black" stroke="black" points="599.78,-381.39 608.59,-375.51 598.03,-374.61 599.78,-381.39"/>
<text text-anchor="middle" x="573.1" y="-414.7" font-family="Verdana" font-size="9.00">MJPEG Stream</text>
<text text-anchor="middle" x="573.1" y="-403.9" font-family="Verdana" font-size="9.00">(App Consumes &amp; Displays)</text>
</g>
<!-- AI_Backend -->
<g id="node2" class="node">
<title>AI_Backend</title>
<path fill="none" stroke="black" d="M369.16,-300.4C369.16,-300.4 268.84,-300.4 268.84,-300.4 262.84,-300.4 256.84,-294.4 256.84,-288.4 256.84,-288.4 256.84,-276.4 256.84,-276.4 256.84,-270.4 262.84,-264.4 268.84,-264.4 268.84,-264.4 369.16,-264.4 369.16,-264.4 375.16,-264.4 381.16,-270.4 381.16,-276.4 381.16,-276.4 381.16,-288.4 381.16,-288.4 381.16,-294.4 375.16,-300.4 369.16,-300.4"/>
<text text-anchor="middle" x="319" y="-285.4" font-family="Verdana" font-size="10.00">AI Inference Backend</text>
<text text-anchor="middle" x="319" y="-273.4" font-family="Verdana" font-size="10.00">(Gemma-3 on T4)</text>
</g>
<!-- AI_Backend&#45;&gt;FastAPIServer_A -->
<g id="edge4" class="edge">
<title>AI_Backend-&gt;FastAPIServer_A</title>
<path fill="none" stroke="black" d="M314.18,-300.51C310.74,-310.03 305.24,-321.48 297,-329.2 288.27,-337.38 277.37,-343.75 266.28,-348.67"/>
<polygon fill="black" stroke="black" points="265.02,-345.41 257.06,-352.39 267.64,-351.9 265.02,-345.41"/>
<text text-anchor="middle" x="336.71" y="-321.1" font-family="Verdana" font-size="9.00">4a. Text Desc</text>
</g>
<!-- AI_Backend&#45;&gt;PyQt6App_B -->
<g id="edge12" class="edge">
<title>AI_Backend-&gt;PyQt6App_B</title>
<path fill="none" stroke="black" d="M344.31,-300.84C359.88,-310.71 380.61,-322.42 400.62,-329.2 467.13,-351.75 548.62,-359.77 598.67,-362.62"/>
<polygon fill="black" stroke="black" points="598.39,-366.11 608.56,-363.14 598.75,-359.12 598.39,-366.11"/>
<text text-anchor="middle" x="431.81" y="-321.1" font-family="Verdana" font-size="9.00">3b. Text Desc</text>
</g>
<!-- User_A -->
<g id="node3" class="node">
<title>User_A</title>
<path fill="none" stroke="black" d="M104.76,-52C104.76,-52 45.24,-52 45.24,-52 39.24,-52 33.24,-46 33.24,-40 33.24,-40 33.24,-28 33.24,-28 33.24,-22 39.24,-16 45.24,-16 45.24,-16 104.76,-16 104.76,-16 110.76,-16 116.76,-22 116.76,-28 116.76,-28 116.76,-40 116.76,-40 116.76,-46 110.76,-52 104.76,-52"/>
<text text-anchor="middle" x="75" y="-31" font-family="Verdana" font-size="10.00">User (Mobile)</text>
</g>
<!-- ReactNativeApp_A -->
<g id="node4" class="node">
<title>ReactNativeApp_A</title>
<path fill="none" stroke="black" d="M120.22,-300.4C120.22,-300.4 41.78,-300.4 41.78,-300.4 35.78,-300.4 29.78,-294.4 29.78,-288.4 29.78,-288.4 29.78,-276.4 29.78,-276.4 29.78,-270.4 35.78,-264.4 41.78,-264.4 41.78,-264.4 120.22,-264.4 120.22,-264.4 126.22,-264.4 132.22,-270.4 132.22,-276.4 132.22,-276.4 132.22,-288.4 132.22,-288.4 132.22,-294.4 126.22,-300.4 120.22,-300.4"/>
<text text-anchor="middle" x="81" y="-279.4" font-family="Verdana" font-size="10.00">React Native App</text>
</g>
<!-- User_A&#45;&gt;ReactNativeApp_A -->
<g id="edge1" class="edge">
<title>User_A-&gt;ReactNativeApp_A</title>
<path fill="none" stroke="black" d="M71.51,-52.29C68.98,-65.1 65.57,-83 63,-98.8 59.11,-122.71 57.22,-128.63 55.56,-152.8 53.58,-181.67 56.14,-189.26 62,-217.6 64.45,-229.44 68.07,-242.27 71.5,-253.29"/>
<polygon fill="black" stroke="black" points="68.09,-254.11 74.48,-262.56 74.75,-251.97 68.09,-254.11"/>
<text text-anchor="middle" x="82.28" y="-155.5" font-family="Verdana" font-size="9.00">1a. Interact</text>
</g>
<!-- ReactNativeApp_A&#45;&gt;FastAPIServer_A -->
<g id="edge2" class="edge">
<title>ReactNativeApp_A-&gt;FastAPIServer_A</title>
<path fill="none" stroke="black" d="M98.57,-300.87C108.4,-310.04 121.19,-321.05 133.85,-329.2 140.9,-333.75 148.65,-338.03 156.42,-341.92"/>
<polygon fill="black" stroke="black" points="154.69,-344.97 165.21,-346.16 157.72,-338.67 154.69,-344.97"/>
<text text-anchor="middle" x="167.92" y="-321.1" font-family="Verdana" font-size="9.00">2a. /vision Req</text>
</g>
<!-- GroqTTS_A -->
<g id="node6" class="node">
<title>GroqTTS_A</title>
<path fill="none" stroke="black" d="M142.79,-217.6C142.79,-217.6 83.21,-217.6 83.21,-217.6 77.21,-217.6 71.21,-211.6 71.21,-205.6 71.21,-205.6 71.21,-193.6 71.21,-193.6 71.21,-187.6 77.21,-181.6 83.21,-181.6 83.21,-181.6 142.79,-181.6 142.79,-181.6 148.79,-181.6 154.79,-187.6 154.79,-193.6 154.79,-193.6 154.79,-205.6 154.79,-205.6 154.79,-211.6 148.79,-217.6 142.79,-217.6"/>
<text text-anchor="middle" x="113" y="-196.6" font-family="Verdana" font-size="10.00">Groq TTS API</text>
</g>
<!-- ReactNativeApp_A&#45;&gt;GroqTTS_A -->
<g id="edge6" class="edge">
<title>ReactNativeApp_A-&gt;GroqTTS_A</title>
<path fill="none" stroke="black" d="M87.79,-264.26C91.92,-253.84 97.29,-240.27 102.01,-228.35"/>
<polygon fill="black" stroke="black" points="105.13,-229.98 105.56,-219.4 98.62,-227.41 105.13,-229.98"/>
<text text-anchor="middle" x="135.61" y="-238.3" font-family="Verdana" font-size="9.00">6a. Text for TTS</text>
</g>
<!-- FastAPIServer_A&#45;&gt;AI_Backend -->
<g id="edge3" class="edge">
<title>FastAPIServer_A-&gt;AI_Backend</title>
<path fill="none" stroke="black" d="M205.67,-347C204.35,-337.69 204.57,-326.47 210.52,-318.4 219.26,-306.53 232.11,-298.6 245.92,-293.33"/>
<polygon fill="black" stroke="black" points="246.79,-296.73 255.19,-290.27 244.6,-290.08 246.79,-296.73"/>
<text text-anchor="middle" x="253.76" y="-321.1" font-family="Verdana" font-size="9.00">3a. Image+Prompt</text>
</g>
<!-- FastAPIServer_A&#45;&gt;ReactNativeApp_A -->
<g id="edge5" class="edge">
<title>FastAPIServer_A-&gt;ReactNativeApp_A</title>
<path fill="none" stroke="black" d="M164.5,-360.23C123.46,-355.59 67.49,-346.28 53.82,-329.2 49.08,-323.28 50.16,-316.46 53.83,-309.92"/>
<polygon fill="black" stroke="black" points="56.63,-312.01 59.76,-301.89 51,-307.85 56.63,-312.01"/>
<text text-anchor="middle" x="84.91" y="-321.1" font-family="Verdana" font-size="9.00">5a. Text Desc</text>
</g>
<!-- AudioOutput_A -->
<g id="node7" class="node">
<title>AudioOutput_A</title>
<path fill="none" stroke="black" d="M142.18,-134.8C142.18,-134.8 83.82,-134.8 83.82,-134.8 77.82,-134.8 71.82,-128.8 71.82,-122.8 71.82,-122.8 71.82,-110.8 71.82,-110.8 71.82,-104.8 77.82,-98.8 83.82,-98.8 83.82,-98.8 142.18,-98.8 142.18,-98.8 148.18,-98.8 154.18,-104.8 154.18,-110.8 154.18,-110.8 154.18,-122.8 154.18,-122.8 154.18,-128.8 148.18,-134.8 142.18,-134.8"/>
<text text-anchor="middle" x="113" y="-113.8" font-family="Verdana" font-size="10.00">Audio Output</text>
</g>
<!-- GroqTTS_A&#45;&gt;AudioOutput_A -->
<g id="edge7" class="edge">
<title>GroqTTS_A-&gt;AudioOutput_A</title>
<path fill="none" stroke="black" d="M113,-181.46C113,-171.36 113,-158.3 113,-146.65"/>
<polygon fill="black" stroke="black" points="116.5,-146.7 113,-136.7 109.5,-146.7 116.5,-146.7"/>
<text text-anchor="middle" x="134.48" y="-155.5" font-family="Verdana" font-size="9.00">7a. Audio</text>
</g>
<!-- AudioOutput_A&#45;&gt;User_A -->
<g id="edge8" class="edge">
<title>AudioOutput_A-&gt;User_A</title>
<path fill="none" stroke="black" d="M104.94,-98.66C100.04,-88.24 93.66,-74.67 88.05,-62.75"/>
<polygon fill="black" stroke="black" points="91.25,-61.32 83.82,-53.76 84.91,-64.3 91.25,-61.32"/>
<text text-anchor="middle" x="118.09" y="-72.7" font-family="Verdana" font-size="9.00">8a. Hears</text>
</g>
<!-- User_B -->
<g id="node8" class="node">
<title>User_B</title>
<path fill="none" stroke="black" d="M766.19,-476.8C766.19,-476.8 697.81,-476.8 697.81,-476.8 691.81,-476.8 685.81,-470.8 685.81,-464.8 685.81,-464.8 685.81,-452.8 685.81,-452.8 685.81,-446.8 691.81,-440.8 697.81,-440.8 697.81,-440.8 766.19,-440.8 766.19,-440.8 772.19,-440.8 778.19,-446.8 778.19,-452.8 778.19,-452.8 778.19,-464.8 778.19,-464.8 778.19,-470.8 772.19,-476.8 766.19,-476.8"/>
<text text-anchor="middle" x="732" y="-455.8" font-family="Verdana" font-size="10.00">User (Desktop)</text>
</g>
<!-- User_B&#45;&gt;PyQt6App_B -->
<g id="edge10" class="edge">
<title>User_B-&gt;PyQt6App_B</title>
<path fill="none" stroke="black" d="M685.57,-449.36C670.62,-444.24 655.57,-436.01 646.46,-422.8 640.9,-414.75 639.44,-404.4 639.74,-394.76"/>
<polygon fill="black" stroke="black" points="643.2,-395.35 640.67,-385.06 636.23,-394.68 643.2,-395.35"/>
<text text-anchor="middle" x="686.73" y="-409.3" font-family="Verdana" font-size="9.00">1b. Interact/Send</text>
</g>
<!-- PyQt6App_B&#45;&gt;AI_Backend -->
<g id="edge11" class="edge">
<title>PyQt6App_B-&gt;AI_Backend</title>
<path fill="none" stroke="black" d="M610.13,-355.64C582.01,-348.68 541.47,-338.53 506.13,-329.2 488.69,-324.59 484.48,-322.88 467,-318.4 442.82,-312.21 416.32,-305.82 392.51,-300.22"/>
<polygon fill="black" stroke="black" points="393.42,-296.84 382.89,-297.96 391.83,-303.65 393.42,-296.84"/>
<text text-anchor="middle" x="568.57" y="-321.1" font-family="Verdana" font-size="9.00">2b. Image+Prompt (Direct)</text>
</g>
<!-- TextDisplay_B -->
<g id="node10" class="node">
<title>TextDisplay_B</title>
<path fill="none" stroke="black" d="M701.03,-300.4C701.03,-300.4 646.97,-300.4 646.97,-300.4 640.97,-300.4 634.97,-294.4 634.97,-288.4 634.97,-288.4 634.97,-276.4 634.97,-276.4 634.97,-270.4 640.97,-264.4 646.97,-264.4 646.97,-264.4 701.03,-264.4 701.03,-264.4 707.03,-264.4 713.03,-270.4 713.03,-276.4 713.03,-276.4 713.03,-288.4 713.03,-288.4 713.03,-294.4 707.03,-300.4 701.03,-300.4"/>
<text text-anchor="middle" x="674" y="-279.4" font-family="Verdana" font-size="10.00">Text Display</text>
</g>
<!-- PyQt6App_B&#45;&gt;TextDisplay_B -->
<g id="edge13" class="edge">
<title>PyQt6App_B-&gt;TextDisplay_B</title>
<path fill="none" stroke="black" d="M637.88,-347.12C635.26,-338.27 633.77,-327.44 637.61,-318.4 638.98,-315.2 640.79,-312.14 642.89,-309.27"/>
<polygon fill="black" stroke="black" points="645.39,-311.74 649.33,-301.9 640.11,-307.13 645.39,-311.74"/>
<text text-anchor="middle" x="670.31" y="-321.1" font-family="Verdana" font-size="9.00">4b. Show Text</text>
</g>
<!-- VideoDisplay_B -->
<g id="node11" class="node">
<title>VideoDisplay_B</title>
<path fill="none" stroke="black" d="M814.96,-300.4C814.96,-300.4 755.04,-300.4 755.04,-300.4 749.04,-300.4 743.04,-294.4 743.04,-288.4 743.04,-288.4 743.04,-276.4 743.04,-276.4 743.04,-270.4 749.04,-264.4 755.04,-264.4 755.04,-264.4 814.96,-264.4 814.96,-264.4 820.96,-264.4 826.96,-270.4 826.96,-276.4 826.96,-276.4 826.96,-288.4 826.96,-288.4 826.96,-294.4 820.96,-300.4 814.96,-300.4"/>
<text text-anchor="middle" x="785" y="-279.4" font-family="Verdana" font-size="10.00">Video Display</text>
</g>
<!-- PyQt6App_B&#45;&gt;VideoDisplay_B -->
<g id="edge16" class="edge">
<title>PyQt6App_B-&gt;VideoDisplay_B</title>
<path fill="none" stroke="black" stroke-dasharray="1,5" d="M675.03,-346.87C695.52,-335.04 722.87,-319.26 745.17,-306.39"/>
<polygon fill="black" stroke="black" points="746.79,-309.49 753.71,-301.46 743.29,-303.43 746.79,-309.49"/>
<text text-anchor="middle" x="746.57" y="-321.1" font-family="Verdana" font-size="9.00">Live Video</text>
</g>
<!-- TextDisplay_B&#45;&gt;User_B -->
<g id="edge14" class="edge">
<title>TextDisplay_B-&gt;User_B</title>
<path fill="none" stroke="black" d="M713.34,-295.09C738.97,-303.11 768.33,-313.19 772,-318.4 774.77,-322.32 774.61,-325.17 772,-329.2 761.39,-345.6 742.52,-330.8 731.91,-347.2 727.56,-353.92 728.92,-398.87 730.39,-429.35"/>
<polygon fill="black" stroke="black" points="726.88,-429.29 730.89,-439.09 733.87,-428.92 726.88,-429.29"/>
<text text-anchor="middle" x="754.46" y="-362.5" font-family="Verdana" font-size="9.00">5b. Reads</text>
</g>
<!-- VideoDisplay_B&#45;&gt;User_B -->
<g id="edge17" class="edge">
<title>VideoDisplay_B-&gt;User_B</title>
<path fill="none" stroke="black" stroke-dasharray="1,5" d="M787.06,-300.84C788.84,-321.15 789.9,-355.46 781,-383.2 775.34,-400.82 764.3,-418.24 754.13,-431.81"/>
<polygon fill="black" stroke="black" points="751.63,-429.31 748.23,-439.35 757.15,-433.62 751.63,-429.31"/>
<text text-anchor="middle" x="800.56" y="-362.5" font-family="Verdana" font-size="9.00">Views</text>
</g>
</g>
</svg>