<svg xmlns="http://www.w3.org/2000/svg" xmlns:xlink="http://www.w3.org/1999/xlink" width="318pt" height="452pt" viewBox="0.00 0.00 318.36 452.03">
<g id="graph0" class="graph" transform="scale(1 1) rotate(0) translate(4 448.03)">
<title>camera_data_pins</title>
<polygon fill="white" stroke="none" points="-4,4 -4,-448.03 314.36,-448.03 314.36,4 -4,4"/>
<!-- Camera_Data -->
<g id="node1" class="node">
<title>Camera_Data</title>
<ellipse fill="#ffaa88" stroke="black" cx="80.76" cy="-217" rx="80.76" ry="18"/>
<text text-anchor="middle" x="80.76" y="-212.8" font-family="Times,serif" font-size="14.00">Camera Data Pins</text>
</g>
<!-- GPIO5 -->
<g id="node2" class="node">
<title>GPIO5</title>
<polygon fill="#ffddcc" stroke="black" points="306.86,-435 251.19,-435 251.19,-399 306.86,-399 306.86,-435"/>
<text text-anchor="middle" x="279.03" y="-412.8" font-family="Times,serif" font-size="14.00">GPIO5</text>
</g>
<!-- Camera_Data&#45;&gt;GPIO5 -->
<g id="edge1" class="edge">
<title>Camera_Data-&gt;GPIO5</title>
<path fill="none" stroke="black" d="M87.12,-235.26C98.32,-270.27 127.61,-346.97 179.52,-388 196.71,-401.58 220.09,-408.81 239.76,-412.65"/>
<polygon fill="black" stroke="black" points="238.9,-416.05 249.35,-414.29 240.08,-409.15 238.9,-416.05"/>
<text text-anchor="middle" x="204.61" y="-431.43" font-family="Times,serif" font-size="14.00">GPIO 5</text>
<text text-anchor="middle" x="204.61" y="-414.63" font-family="Times,serif" font-size="14.00">Y2</text>
</g>
<!-- GPIO18 -->
<g id="node3" class="node">
<title>GPIO18</title>
<polygon fill="#ffddcc" stroke="black" points="310.36,-378 247.69,-378 247.69,-342 310.36,-342 310.36,-378"/>
<text text-anchor="middle" x="279.03" y="-355.8" font-family="Times,serif" font-size="14.00">GPIO18</text>
</g>
<!-- Camera_Data&#45;&gt;GPIO18 -->
<g id="edge2" class="edge">
<title>Camera_Data-&gt;GPIO18</title>
<path fill="none" stroke="black" d="M92.68,-235.07C108.67,-260.03 140.81,-304.83 179.52,-330 196.53,-341.06 217.8,-348.21 236.23,-352.74"/>
<polygon fill="black" stroke="black" points="235.27,-356.11 245.79,-354.9 236.81,-349.28 235.27,-356.11"/>
<text text-anchor="middle" x="204.61" y="-371.64" font-family="Times,serif" font-size="14.00">GPIO 18</text>
<text text-anchor="middle" x="204.61" y="-354.84" font-family="Times,serif" font-size="14.00">Y3</text>
</g>
<!-- GPIO19 -->
<g id="node4" class="node">
<title>GPIO19</title>
<polygon fill="#ffddcc" stroke="black" points="310.36,-321 247.69,-321 247.69,-285 310.36,-285 310.36,-321"/>
<text text-anchor="middle" x="279.03" y="-298.8" font-family="Times,serif" font-size="14.00">GPIO19</text>
</g>
<!-- Camera_Data&#45;&gt;GPIO19 -->
<g id="edge3" class="edge">
<title>Camera_Data-&gt;GPIO19</title>
<path fill="none" stroke="black" d="M106.46,-234.53C125.64,-247.48 153.29,-264.75 179.52,-276 197.66,-283.78 218.63,-289.9 236.56,-294.33"/>
<polygon fill="black" stroke="black" points="235.55,-297.68 246.08,-296.58 237.16,-290.87 235.55,-297.68"/>
<text text-anchor="middle" x="204.61" y="-313.58" font-family="Times,serif" font-size="14.00">GPIO 19</text>
<text text-anchor="middle" x="204.61" y="-296.78" font-family="Times,serif" font-size="14.00">Y4</text>
</g>
<!-- GPIO21 -->
<g id="node5" class="node">
<title>GPIO21</title>
<polygon fill="#ffddcc" stroke="black" points="310.36,-264 247.69,-264 247.69,-228 310.36,-228 310.36,-264"/>
<text text-anchor="middle" x="279.03" y="-241.8" font-family="Times,serif" font-size="14.00">GPIO21</text>
</g>
<!-- Camera_Data&#45;&gt;GPIO21 -->
<g id="edge4" class="edge">
<title>Camera_Data-&gt;GPIO21</title>
<path fill="none" stroke="black" d="M149.03,-226.94C178,-231.22 210.95,-236.09 236.31,-239.84"/>
<polygon fill="black" stroke="black" points="235.48,-243.25 245.88,-241.25 236.5,-236.33 235.48,-243.25"/>
<text text-anchor="middle" x="204.61" y="-259.22" font-family="Times,serif" font-size="14.00">GPIO 21</text>
<text text-anchor="middle" x="204.61" y="-242.42" font-family="Times,serif" font-size="14.00">Y5</text>
</g>
<!-- GPIO36 -->
<g id="node6" class="node">
<title>GPIO36</title>
<polygon fill="#ffddcc" stroke="black" points="310.36,-207 247.69,-207 247.69,-171 310.36,-171 310.36,-207"/>
<text text-anchor="middle" x="279.03" y="-184.8" font-family="Times,serif" font-size="14.00">GPIO36</text>
</g>
<!-- Camera_Data&#45;&gt;GPIO36 -->
<g id="edge5" class="edge">
<title>Camera_Data-&gt;GPIO36</title>
<path fill="none" stroke="black" d="M127.51,-202C143.75,-197.36 162.28,-192.83 179.52,-190.4 197.91,-187.81 218.42,-187.16 235.95,-187.28"/>
<polygon fill="black" stroke="black" points="235.69,-190.78 245.75,-187.44 235.8,-183.78 235.69,-190.78"/>
<text text-anchor="middle" x="204.61" y="-211.4" font-family="Times,serif" font-size="14.00">GPIO 36</text>
<text text-anchor="middle" x="204.61" y="-194.6" font-family="Times,serif" font-size="14.00">Y6</text>
</g>
<!-- GPIO39 -->
<g id="node7" class="node">
<title>GPIO39</title>
<polygon fill="#ffddcc" stroke="black" points="310.36,-150 247.69,-150 247.69,-114 310.36,-114 310.36,-150"/>
<text text-anchor="middle" x="279.03" y="-127.8" font-family="Times,serif" font-size="14.00">GPIO39</text>
</g>
<!-- Camera_Data&#45;&gt;GPIO39 -->
<g id="edge6" class="edge">
<title>Camera_Data-&gt;GPIO39</title>
<path fill="none" stroke="black" d="M101.59,-199.41C120.34,-183.77 149.94,-161.56 179.52,-149.4 197.31,-142.09 218.14,-137.85 236.06,-135.39"/>
<polygon fill="black" stroke="black" points="236.34,-138.88 245.84,-134.2 235.49,-131.93 236.34,-138.88"/>
<text text-anchor="middle" x="204.61" y="-170.4" font-family="Times,serif" font-size="14.00">GPIO 39</text>
<text text-anchor="middle" x="204.61" y="-153.6" font-family="Times,serif" font-size="14.00">Y7</text>
</g>
<!-- GPIO34 -->
<g id="node8" class="node">
<title>GPIO34</title>
<polygon fill="#ffddcc" stroke="black" points="310.36,-93 247.69,-93 247.69,-57 310.36,-57 310.36,-93"/>
<text text-anchor="middle" x="279.03" y="-70.8" font-family="Times,serif" font-size="14.00">GPIO34</text>
</g>
<!-- Camera_Data&#45;&gt;GPIO34 -->
<g id="edge7" class="edge">
<title>Camera_Data-&gt;GPIO34</title>
<path fill="none" stroke="black" d="M91.46,-199C106.64,-172.66 138.53,-123.95 179.52,-98.4 196.37,-87.9 217.52,-82.11 235.9,-78.92"/>
<polygon fill="black" stroke="black" points="236.35,-82.39 245.71,-77.44 235.3,-75.47 236.35,-82.39"/>
<text text-anchor="middle" x="204.61" y="-119.4" font-family="Times,serif" font-size="14.00">GPIO 34</text>
<text text-anchor="middle" x="204.61" y="-102.6" font-family="Times,serif" font-size="14.00">Y8</text>
</g>
<!-- GPIO35 -->
<g id="node9" class="node">
<title>GPIO35</title>
<polygon fill="#ffddcc" stroke="black" points="310.36,-36 247.69,-36 247.69,0 310.36,0 310.36,-36"/>
<text text-anchor="middle" x="279.03" y="-13.8" font-family="Times,serif" font-size="14.00">GPIO35</text>
</g>
<!-- Camera_Data&#45;&gt;GPIO35 -->
<g id="edge8" class="edge">
<title>Camera_Data-&gt;GPIO35</title>
<path fill="none" stroke="black" d="M86.68,-198.71C97.28,-162.88 125.8,-83.38 179.52,-42.4 195.65,-30.1 217.19,-23.93 236.01,-20.86"/>
<polygon fill="black" stroke="black" points="236.37,-24.34 245.81,-19.53 235.43,-17.41 236.37,-24.34"/>
<text text-anchor="middle" x="204.61" y="-63.4" font-family="Times,serif" font-size="14.00">GPIO 35</text>
<text text-anchor="middle" x="204.61" y="-46.6" font-family="Times,serif" font-size="14.00">Y9</text>
</g>
</g>
</svg>