<svg xmlns="http://www.w3.org/2000/svg" xmlns:xlink="http://www.w3.org/1999/xlink" width="379pt" height="111pt" viewBox="0.00 0.00 378.52 111.05">
<g id="graph0" class="graph" transform="scale(1 1) rotate(0) translate(4 107.05)">
<title>serial_comm</title>
<polygon fill="white" stroke="none" points="-4,4 -4,-107.05 374.52,-107.05 374.52,4 -4,4"/>
<!-- Serial_Comm -->
<g id="node1" class="node">
<title>Serial_Comm</title>
<ellipse fill="#66b2ff" stroke="black" cx="98.2" cy="-46" rx="98.2" ry="18"/>
<text text-anchor="middle" x="98.2" y="-41.8" font-family="Times,serif" font-size="14.00">Serial Communication</text>
</g>
<!-- GPIO1 -->
<g id="node2" class="node">
<title>GPIO1</title>
<polygon fill="#cce5ff" stroke="black" points="370.52,-93 314.85,-93 314.85,-57 370.52,-57 370.52,-93"/>
<text text-anchor="middle" x="342.68" y="-70.8" font-family="Times,serif" font-size="14.00">GPIO1</text>
</g>
<!-- Serial_Comm&#45;&gt;GPIO1 -->
<g id="edge1" class="edge">
<title>Serial_Comm-&gt;GPIO1</title>
<path fill="none" stroke="black" d="M181.63,-55.86C222.84,-60.79 270.74,-66.52 303.32,-70.41"/>
<polygon fill="black" stroke="black" points="302.74,-73.87 313.08,-71.58 303.57,-66.92 302.74,-73.87"/>
<text text-anchor="middle" x="255.63" y="-90.45" font-family="Times,serif" font-size="14.00">GPIO 1 (U0T)</text>
<text text-anchor="middle" x="255.63" y="-73.65" font-family="Times,serif" font-size="14.00">TXD0</text>
</g>
<!-- GPIO3 -->
<g id="node3" class="node">
<title>GPIO3</title>
<polygon fill="#cce5ff" stroke="black" points="370.52,-36 314.85,-36 314.85,0 370.52,0 370.52,-36"/>
<text text-anchor="middle" x="342.68" y="-13.8" font-family="Times,serif" font-size="14.00">GPIO3</text>
</g>
<!-- Serial_Comm&#45;&gt;GPIO3 -->
<g id="edge2" class="edge">
<title>Serial_Comm-&gt;GPIO3</title>
<path fill="none" stroke="black" d="M154.15,-30.77C173.09,-26.2 194.54,-21.78 214.41,-19.4 244.15,-15.85 278.07,-15.66 303.41,-16.28"/>
<polygon fill="black" stroke="black" points="303.14,-19.77 313.24,-16.57 303.35,-12.77 303.14,-19.77"/>
<text text-anchor="middle" x="255.63" y="-40.4" font-family="Times,serif" font-size="14.00">GPIO 3 (U0R)</text>
<text text-anchor="middle" x="255.63" y="-23.6" font-family="Times,serif" font-size="14.00">RXD0</text>
</g>
</g>
</svg>